<svg fill="#000000" width="256px" height="256px" viewBox="-2.4 -2.4 28.80 28.80" id="date-search" data-name="Flat Line" xmlns="http://www.w3.org/2000/svg" class="icon flat-line"><g id="SVGRepo_bgCarrier" stroke-width="0" transform="translate(0,0), scale(1)"></g><g id="SVGRepo_tracerCarrier" stroke-linecap="round" stroke-linejoin="round"></g><g id="SVGRepo_iconCarrier"><path id="secondary" d="M3,9V20a1,1,0,0,0,1,1H20a1,1,0,0,0,1-1V9Zm8.5,8A2.5,2.5,0,1,1,14,14.5,2.5,2.5,0,0,1,11.5,17Z" style="fill: #64307e; stroke-width: 2;"></path><path id="primary" d="M20,21H4a1,1,0,0,1-1-1V9H21V20A1,1,0,0,1,20,21ZM21,5a1,1,0,0,0-1-1H4A1,1,0,0,0,3,5V9H21ZM16,3V6M8,3V6m3.5,6A2.5,2.5,0,1,0,14,14.5,2.5,2.5,0,0,0,11.5,12ZM15,18l-1.73-1.73" style="fill: none; stroke: #ffffff; stroke-linecap: round; stroke-linejoin: round; stroke-width: 2;"></path></g></svg>